<svg xmlns="http://www.w3.org/2000/svg" width="30" height="30">
    <g data-name="vuesax/linear/tick-square">
        <g data-name="그룹 52">
            <g data-name="패스 2156" style="stroke-linecap:round;stroke-linejoin:round;fill:none">
                <path d="M181.217 80.735v.008-.008c0-1.255 1.149-2.787.833-4-.3-1.166-2.055-2.02-2.722-3.051l-.016-.027c-.609-1.091-.392-2.969-1.266-3.857-.845-.859-2.789-.722-3.883-1.282l-.06-.035c-1.056-.656-1.8-2.359-2.992-2.687-1.161-.321-2.777.77-4 .831h.008-.008c-1.255 0-2.788-1.149-4-.833-1.166.3-2.02 2.055-3.051 2.722l-.027.016c-1.091.609-2.968.392-3.857 1.266-.859.845-.722 2.789-1.282 3.883l-.035.06c-.656 1.056-2.359 1.8-2.687 2.992-.321 1.161.77 2.777.831 4v-.008.008c0 1.255-1.149 2.788-.833 4 .3 1.166 2.055 2.02 2.722 3.051l.016.027c.609 1.091.392 2.969 1.266 3.857.845.859 2.789.722 3.883 1.282l.06.035c1.056.656 1.8 2.359 2.992 2.687 1.161.321 2.777-.77 4-.831h-.008.008c1.255 0 2.787 1.149 4 .833 1.166-.3 2.02-2.055 3.051-2.722l.027-.016c1.091-.609 2.968-.392 3.857-1.266.859-.845.722-2.789 1.282-3.883l.035-.06c.656-1.056 2.359-1.8 2.687-2.992.322-1.158-.769-2.774-.831-4z" style="stroke:none" transform="translate(-152.107 -65.735)"/>
                <path d="M170.582 67.738c-.26.028-.762.205-1.137.337-.628.222-1.334.471-2.077.536-.09.012-.183.017-.275.016-.896-.003-1.709-.3-2.426-.561-.346-.126-.808-.295-1.05-.323-.209.152-.583.589-.815.86-.456.532-.971 1.135-1.628 1.569-.038.025-.077.05-.117.073l.005-.003-.031.019-.03.016c-.767.429-1.603.576-2.341.706-.327.057-.854.15-1.071.245-.104.234-.21.801-.276 1.153-.128.69-.274 1.47-.626 2.175-.02.04-.042.081-.065.121l-.035.061-.034.057c-.449.722-1.08 1.252-1.638 1.719-.254.213-.663.556-.804.747.027.255.218.799.337 1.136.222.628.471 1.335.536 2.077a2.012 2.012 0 0 1 .016.277c-.003.896-.3 1.708-.561 2.425-.114.311-.297.813-.324 1.049.151.208.59.582.86.815.533.456 1.136.972 1.57 1.628a2.028 2.028 0 0 1 .105.172c.429.768.576 1.604.706 2.343.057.326.15.853.245 1.07.234.105.801.21 1.153.276.688.128 1.466.274 2.169.624.043.02.085.043.127.067l.061.035a2 2 0 0 1 .057.034c.722.45 1.251 1.08 1.718 1.638.213.254.556.662.747.804.26-.028.762-.205 1.137-.337.628-.222 1.335-.471 2.077-.536.09-.011.183-.017.274-.016.897.003 1.71.3 2.428.562.345.126.807.294 1.05.322.208-.152.582-.588.814-.86.455-.53.97-1.132 1.623-1.565.04-.027.08-.053.122-.077l-.004.003.03-.018.03-.017c.767-.428 1.603-.575 2.342-.705.326-.058.853-.15 1.07-.245.105-.235.21-.802.276-1.153.13-.702.28-1.497.645-2.211l.05-.093.027-.046.038-.064c.449-.723 1.08-1.252 1.638-1.72.254-.212.664-.555.805-.746-.027-.256-.22-.8-.338-1.137-.222-.628-.471-1.334-.536-2.077a2.013 2.013 0 0 1-.016-.274c.003-.897.3-1.71.562-2.427.113-.312.296-.813.323-1.05-.151-.207-.589-.582-.86-.814-.534-.457-1.137-.973-1.57-1.63a2.019 2.019 0 0 1-.072-.115l.002.005-.015-.026a2.158 2.158 0 0 1-.02-.035c-.428-.767-.575-1.604-.705-2.342-.058-.327-.15-.853-.245-1.071-.235-.104-.802-.21-1.153-.276-.691-.128-1.472-.274-2.177-.627-.04-.02-.08-.041-.12-.064l-.06-.035a1.982 1.982 0 0 1-.057-.034c-.723-.449-1.252-1.08-1.72-1.638-.212-.253-.554-.662-.746-.804m.063-2.003c.162 0 .318.018.466.059 1.189.329 1.936 2.031 2.992 2.687l.06.035c1.093.56 3.037.422 3.882 1.281.874.888.657 2.766 1.266 3.857l.016.026c.667 1.031 2.419 1.885 2.722 3.051.315 1.216-.834 2.749-.834 4.004v.008l.002-.008c.062 1.226 1.153 2.842.832 4.003-.33 1.189-2.032 1.936-2.688 2.992l-.034.06c-.56 1.093-.423 3.037-1.282 3.882-.888.874-2.765.657-3.856 1.266l-.027.016c-1.03.667-1.885 2.42-3.05 2.722-1.217.315-2.75-.834-4.004-.834h-.009l.009.002c-1.227.062-2.842 1.153-4.004.832-1.189-.33-1.936-2.032-2.992-2.688l-.06-.034c-1.092-.56-3.037-.423-3.882-1.282-.874-.888-.657-2.765-1.266-3.857l-.016-.026c-.666-1.03-2.419-1.884-2.721-3.05-.316-1.217.833-2.75.833-4.004v-.009l-.002.009c-.062-1.227-1.152-2.842-.831-4.004.329-1.188 2.031-1.936 2.687-2.991l.035-.06c.56-1.093.422-3.038 1.281-3.883.888-.874 2.766-.657 3.857-1.266l.026-.016c1.031-.666 1.885-2.419 3.051-2.721 1.216-.316 2.749.833 4.004.833h.008l-.008-.002c1.07-.054 2.435-.89 3.537-.89z" style="fill:#ddd;stroke:none" transform="translate(-152.107 -65.735)"/>
            </g>
        </g>
        <path d="m0 3.858 3.858 3.857L11.587 0" transform="translate(9.207 11.142)" style="stroke:#ddd;stroke-width:2px;stroke-linecap:round;stroke-linejoin:round;fill:none"/>
    </g>
</svg>
