<svg xmlns="http://www.w3.org/2000/svg" width="30" height="30">
    <g data-name="그룹 48">
        <path data-name="패스 2156" d="M181.217 80.735v.008-.008c0-1.255 1.149-2.787.833-4-.3-1.166-2.055-2.02-2.722-3.051l-.016-.027c-.609-1.091-.392-2.969-1.266-3.857-.845-.859-2.789-.722-3.883-1.282l-.06-.035c-1.056-.656-1.8-2.359-2.992-2.687-1.161-.321-2.777.77-4 .831h.008-.008c-1.255 0-2.788-1.149-4-.833-1.166.3-2.02 2.055-3.051 2.722l-.027.016c-1.091.609-2.968.392-3.857 1.266-.859.845-.722 2.789-1.282 3.883l-.035.06c-.656 1.056-2.359 1.8-2.687 2.992-.321 1.161.77 2.777.831 4v-.008.008c0 1.255-1.149 2.788-.833 4 .3 1.166 2.055 2.02 2.722 3.051l.016.027c.609 1.091.392 2.969 1.266 3.857.845.859 2.789.722 3.883 1.282l.06.035c1.056.656 1.8 2.359 2.992 2.687 1.161.321 2.777-.77 4-.831h-.008.008c1.255 0 2.787 1.149 4 .833 1.166-.3 2.02-2.055 3.051-2.722l.027-.016c1.091-.609 2.968-.392 3.857-1.266.859-.845.722-2.789 1.282-3.883l.035-.06c.656-1.056 2.359-1.8 2.687-2.992.322-1.158-.769-2.774-.831-4z" transform="translate(-152.107 -65.735)" style="fill:#ffde72"/>
        <path data-name="패스 2641" d="m15.248 19.28-3.824-3.822-1.91 1.911 5.734 5.731 9.552-9.552-1.909-1.913-7.643 7.645z" transform="translate(-2.514 -2.635)" style="fill:#fff"/>
    </g>
</svg>
