<svg xmlns="http://www.w3.org/2000/svg" width="24" height="24">
    <defs>
        <style>
            .cls-3{fill:#ffdf00}
        </style>
    </defs>
    <g id="그룹_2390" data-name="그룹 2390" transform="translate(10027 -3382)">
        <path id="사각형_3857" data-name="사각형 3857" transform="translate(-10027 3382)" style="fill:none" d="M0 0h24v24H0z"/>
        <g id="그룹_2387" data-name="그룹 2387" transform="translate(-10027 3383)">
            <path id="패스_193" data-name="패스 193" d="M121.986 158.027c-6.627 0-12 4.258-12 9.513 0 3.379 2.226 6.339 5.569 8.032l-1.132 4.237a.352.352 0 0 0 .086.361.341.341 0 0 0 .245.1.348.348 0 0 0 .209-.08l4.863-3.3a15.085 15.085 0 0 0 2.16.159c6.626 0 12-4.258 12-9.514s-5.374-9.513-12-9.513" transform="translate(-109.987 -158.027)" style="fill:#2b1718"/>
            <path id="패스_194" data-name="패스 194" class="cls-3" d="M115.977 171.555h-1.3a.85.85 0 0 1-.46-.124.5.5 0 0 1-.237-.347 1.503 1.503 0 0 1-.02-.133.52.52 0 0 1 .2-.44.8.8 0 0 1 .509-.16h3.961a.842.842 0 0 1 .459.122.514.514 0 0 1 .241.348.672.672 0 0 1 .008.13.542.542 0 0 1-.2.447.8.8 0 0 1-.507.156h-1.3v4.463a.72.72 0 0 1-.188.517.656.656 0 0 1-.5.195.7.7 0 0 1-.438-.14.65.65 0 0 1-.231-.388.75.75 0 0 1-.012-.183z" transform="translate(-111.752 -163.955)"/>
            <path id="패스_195" data-name="패스 195" class="cls-3" d="M122.869 170.582a.613.613 0 0 1 .25-.335.79.79 0 0 1 .42-.1h.329a.86.86 0 0 1 .447.109.717.717 0 0 1 .284.414l1.654 4.8a2.759 2.759 0 0 1 .112.382 1.611 1.611 0 0 1 .024.164.6.6 0 0 1-.194.443.62.62 0 0 1-.456.182.585.585 0 0 1-.615-.391l-.354-1.044h-2.207l-.356 1.044a.572.572 0 0 1-.613.391.637.637 0 0 1-.4-.125.573.573 0 0 1-.21-.354.673.673 0 0 1-.012-.146.8.8 0 0 1 .037-.252c.026-.1.058-.2.093-.294zm.829 1.113h-.017l-.808 2.516h1.6z" transform="translate(-114.914 -163.865)"/>
            <path id="패스_196" data-name="패스 196" class="cls-3" d="M131.318 170.858a.719.719 0 0 1 .188-.516.661.661 0 0 1 .5-.2.679.679 0 0 1 .439.143.687.687 0 0 1 .241.569v4.466h2.29a.829.829 0 0 1 .463.121.525.525 0 0 1 .232.349.849.849 0 0 1 .02.131.53.53 0 0 1-.2.443.813.813 0 0 1-.509.157h-2.859a.9.9 0 0 1-.515-.132.622.622 0 0 1-.26-.423 2.016 2.016 0 0 1-.03-.28z" transform="translate(-119.592 -163.867)"/>
            <path id="패스_197" data-name="패스 197" class="cls-3" d="M139.61 170.858a.725.725 0 0 1 .186-.516.662.662 0 0 1 .5-.2.675.675 0 0 1 .438.143.639.639 0 0 1 .231.388.693.693 0 0 1 .014.181v2.076l2.153-2.475a1.5 1.5 0 0 1 .261-.236.507.507 0 0 1 .285-.077.7.7 0 0 1 .41.127.512.512 0 0 1 .228.335s0 .024.01.053a.242.242 0 0 0 0 .058.532.532 0 0 1-.063.26 1.264 1.264 0 0 1-.163.23l-1.409 1.538 1.666 2.639.05.079a1.419 1.419 0 0 1 .2.4c0 .005 0 .022.01.042a.287.287 0 0 0 0 .045.624.624 0 0 1-.206.526.8.8 0 0 1-.5.16.7.7 0 0 1-.342-.074.911.911 0 0 1-.269-.3l-1.58-2.542-.753.784.008 1.419a.729.729 0 0 1-.188.517.662.662 0 0 1-.5.195.7.7 0 0 1-.44-.14.645.645 0 0 1-.23-.388.839.839 0 0 1-.013-.183z" transform="translate(-123.336 -163.865)"/>
        </g>
    </g>
</svg>
