<svg xmlns="http://www.w3.org/2000/svg" width="12" height="12">
    <defs>
        <style>
            .cls-1{fill:#292d32}
        </style>
    </defs>
    <g id="vuesax_outline_like" data-name="vuesax/outline/like" transform="translate(-300 -188)">
        <g id="like" transform="translate(300 188)">
            <path id="Vector" class="cls-1" d="M4.71 10.1h-1.9a1.909 1.909 0 0 1-1.21-.409L.08 8.521l.46-.6 1.55 1.2a1.2 1.2 0 0 0 .72.22h1.9a1.134 1.134 0 0 0 1.035-.765l1.21-3.675a.6.6 0 0 0-.04-.565.659.659 0 0 0-.555-.236h-2a.876.876 0 0 1-.66-.3.892.892 0 0 1-.2-.725l.25-1.605a.622.622 0 0 0-.4-.685.636.636 0 0 0-.67.2L.62 4.031 0 3.616 2.05.566a1.354 1.354 0 0 1 2.43 1.045l-.245 1.575a.152.152 0 0 0 .03.125.14.14 0 0 0 .1.04h2a1.392 1.392 0 0 1 1.165.56 1.332 1.332 0 0 1 .135 1.24l-1.2 3.64A1.864 1.864 0 0 1 4.71 10.1z" transform="translate(3.43 .949)"/>
            <path id="Vector-2" data-name="Vector" class="cls-1" d="M1.875 7.55h-.5C.45 7.55 0 7.115 0 6.225v-4.9C0 .435.45 0 1.375 0h.5C2.8 0 3.25.435 3.25 1.325v4.9c0 .89-.45 1.325-1.375 1.325zm-.5-6.8C.83.75.75.88.75 1.325v4.9c0 .445.08.575.625.575h.5c.545 0 .625-.13.625-.575v-4.9C2.5.88 2.42.75 1.875.75z" transform="translate(.815 2.95)"/>
        </g>
    </g>
</svg>
