<svg xmlns="http://www.w3.org/2000/svg" width="20" height="20" viewBox="0 0 20 20">
  <g id="그룹_8" data-name="그룹 8" transform="translate(-497 -189)">
    <circle id="타원_17" data-name="타원 17" cx="10" cy="10" r="10" transform="translate(497 189)" fill="#222"/>
    <g id="vuesax_outline_setting-2" data-name="vuesax/outline/setting-2" transform="translate(201 3)">
      <g id="setting-2" transform="translate(300 190)">
        <path id="Vector" d="M1.875,3.75A1.875,1.875,0,1,1,3.75,1.875,1.876,1.876,0,0,1,1.875,3.75Zm0-3A1.125,1.125,0,1,0,3,1.875,1.127,1.127,0,0,0,1.875.75Z" transform="translate(4.125 4.125)" fill="#fff"/>
        <path id="Vector-2" data-name="Vector" d="M6.98,10.189a1.36,1.36,0,0,1-.315-.04,1.228,1.228,0,0,1-.735-.555l-.06-.1c-.3-.51-.7-.51-.995,0l-.055.1a1.2,1.2,0,0,1-.735.56,1.171,1.171,0,0,1-.915-.125l-.86-.495a1.327,1.327,0,0,1-.49-1.81.669.669,0,0,0,.1-.63.666.666,0,0,0-.6-.23A1.327,1.327,0,0,1,0,5.534v-.88A1.327,1.327,0,0,1,1.325,3.329a.666.666,0,0,0,.6-.23.655.655,0,0,0-.1-.63,1.331,1.331,0,0,1-.13-1.005,1.29,1.29,0,0,1,.62-.8L3.175.164A1.211,1.211,0,0,1,4.825.6l.06.1c.3.51.7.51.995,0L5.935.6A1.207,1.207,0,0,1,7.59.169l.86.495a1.327,1.327,0,0,1,.49,1.81.669.669,0,0,0-.1.63.666.666,0,0,0,.6.23A1.327,1.327,0,0,1,10.76,4.659v.88A1.327,1.327,0,0,1,9.435,6.864a.666.666,0,0,0-.6.23.655.655,0,0,0,.1.63,1.308,1.308,0,0,1,.13,1.005,1.29,1.29,0,0,1-.62.8l-.865.5A1.244,1.244,0,0,1,6.98,10.189ZM5.375,8.339a1.362,1.362,0,0,1,1.145.775l.055.095a.458.458,0,0,0,.62.165l.865-.5a.578.578,0,0,0,.27-.35.571.571,0,0,0-.055-.435,1.373,1.373,0,0,1-.1-1.38A1.366,1.366,0,0,1,9.42,6.1a.572.572,0,0,0,.575-.575v-.88a.575.575,0,0,0-.575-.575,1.366,1.366,0,0,1-1.245-.6,1.373,1.373,0,0,1,.1-1.38.571.571,0,0,0,.055-.435.585.585,0,0,0-.265-.35L7.2.809a.46.46,0,0,0-.63.165l-.055.1a1.362,1.362,0,0,1-1.145.775,1.362,1.362,0,0,1-1.145-.775L4.17.969a.459.459,0,0,0-.62-.16l-.865.5a.578.578,0,0,0-.27.35.571.571,0,0,0,.055.435,1.373,1.373,0,0,1,.1,1.38,1.366,1.366,0,0,1-1.245.6.572.572,0,0,0-.575.575v.88a.575.575,0,0,0,.575.575,1.366,1.366,0,0,1,1.245.605,1.373,1.373,0,0,1-.1,1.38.571.571,0,0,0-.055.435.585.585,0,0,0,.265.35l.865.495a.442.442,0,0,0,.345.05.474.474,0,0,0,.285-.215l.055-.095A1.372,1.372,0,0,1,5.375,8.339Z" transform="translate(0.625 0.906)" fill="#fff"/>
        <path id="Vector-3" data-name="Vector" d="M0,0H12V12H0Z" fill="none" opacity="0"/>
      </g>
    </g>
  </g>
</svg>
