<svg xmlns="http://www.w3.org/2000/svg" width="92" height="20">
    <defs>
        <style>
            .cls-2{fill:#222}
        </style>
    </defs>
    <g id="그룹_46" data-name="그룹 46" transform="translate(3878 -1389)">
        <g id="그룹_231" data-name="그룹 231" transform="translate(-4206.135 1246.998)">
            <path id="패스_240" data-name="패스 240" d="M362.137 161.8h-9v-3.5h2.249v-10.5h-2.25v-3.5h9v3.5h-2.25v10.5h2.25z" transform="translate(0 -1.054)"/>
            <path id="패스_241" data-name="패스 241" d="m426.9 152.056-3.5 6.25h-3.5l-3.5-6.25v9.744h-4.5v-17.5h4.75l5 9.25 5-9.25h4.75v17.5h-4.5z" transform="translate(-47.512 -1.054)"/>
            <path id="패스_242" data-name="패스 242" d="M542.275 161.43a101.793 101.793 0 0 1-10.75.625 4.124 4.124 0 0 1-4.75-4.752v-8a4.293 4.293 0 0 1 5-5h9v3.5h-8a1.325 1.325 0 0 0-1.5 1.5v8a1.162 1.162 0 0 0 1.064 1.252 1.144 1.144 0 0 0 .186 0q2.872 0 5.248-.125v-3.63h-3.247v-3h7.747z" transform="translate(-140.392 -1.054)"/>
            <path id="패스_243" data-name="패스 243" d="M634.417 156a4.294 4.294 0 0 1-5 5h-6.252a4.295 4.295 0 0 1-5-5v-8a4.295 4.295 0 0 1 5-5h6.252a4.294 4.294 0 0 1 5 5zm-4.5-8a1.329 1.329 0 0 0-1.5-1.5h-4.25a1.327 1.327 0 0 0-1.5 1.5v8a1.326 1.326 0 0 0 1.5 1.5h4.25a1.326 1.326 0 0 0 1.5-1.5z" transform="translate(-214.282)"/>
        </g>
        <g id="레이어_2" data-name="레이어 2" transform="translate(-3877.678 1389.322)">
            <g id="레이어_1" data-name="레이어 1" transform="translate(-.322 -.322)">
                <g id="그룹_241" data-name="그룹 241" transform="translate(.594 2.306)">
                    <path id="패스_272-6" data-name="패스 272-6" class="cls-2" d="M22.551 57.978a2.623 2.623 0 0 0 3.987.011 13.171 13.171 0 0 1 .962-.928 1.542 1.542 0 0 1 2.279 2 6.646 6.646 0 0 1-3.657 2.721 3.29 3.29 0 0 1-3.331-1.038 3.357 3.357 0 0 1-.8-3.274c.231.206.4.354.56.508z" transform="translate(-18.701 -49.557)"/>
                    <path id="패스_273-6" data-name="패스 273-6" class="cls-2" d="M34.609 39.313a16.237 16.237 0 0 0 1.462-1.426 2.846 2.846 0 0 0-1.938-4.787 1.06 1.06 0 0 1-.589-.138c-.8-.715-1.571-1.46-2.387-2.229a5.98 5.98 0 0 1 8.756 4.3 6.511 6.511 0 0 1-2.558 6 6.005 6.005 0 0 1-8.825-.833 5.328 5.328 0 0 0 6.079-.887z" transform="translate(-24.275 -27.209)"/>
                    <path id="패스_274-6" data-name="패스 274-6" class="cls-2" d="M88.94 13.326a1.128 1.128 0 0 1 1.589 0L91.9 14.7l-2.833 2.835-2.167-2.169z" transform="translate(-73.091 -12.999)"/>
                    <path id="패스_275-6" data-name="패스 275-6" class="cls-2" d="M2.866 14.373 4.239 13l2.252 2.252 4.222 4.222-1.373 1.373a1.128 1.128 0 0 1-1.589 0L4.905 18l-2.04-2.038a1.129 1.129 0 0 1 0-1.591z" transform="translate(-2.538 -13)"/>
                </g>
            </g>
        </g>
    </g>
</svg>
