<svg xmlns="http://www.w3.org/2000/svg" width="183.999" height="40">
    <defs>
        <style>
            .cls-1{fill:#fff}
        </style>
    </defs>
    <g id="그룹_5636" data-name="그룹 5636" transform="translate(3877.999 -1389)">
        <g id="그룹_231" data-name="그룹 231" transform="translate(-3827.999 1391)">
            <path id="패스_240" data-name="패스 240" class="cls-1" d="M371.14 179.3h-18v-7h4.5v-21h-4.5v-7h18v7h-4.5v21h4.5z" transform="translate(-353.135 -143.807)"/>
            <path id="패스_241" data-name="패스 241" class="cls-1" d="m441.9 159.806-7 12.5h-7l-7-12.5V179.3h-9v-34.994h9.5l10 18.5 10-18.5h9.5V179.3h-9z" transform="translate(-389.395 -143.807)"/>
            <path id="패스_242" data-name="패스 242" class="cls-1" d="M557.775 178.554a203.593 203.593 0 0 1-21.5 1.25q-4.9 0-7.2-2.3t-2.3-7.2v-16q0-5.25 2.374-7.625t7.625-2.371h18v7h-16a2.65 2.65 0 0 0-3 3v16a2.323 2.323 0 0 0 2.127 2.5 2.281 2.281 0 0 0 .373 0q5.744 0 10.5-.25V165.3h-6.494v-6h15.495z" transform="translate(-460.278 -143.806)"/>
            <path id="패스_243" data-name="패스 243" class="cls-1" d="M650.668 169q0 5.25-2.374 7.625T640.669 179h-12.5q-5.25 0-7.625-2.374T618.166 169v-16q0-5.25 2.375-7.625t7.624-2.375h12.5q5.25 0 7.624 2.374t2.379 7.626zm-9-16a2.657 2.657 0 0 0-3-3h-8.5a2.653 2.653 0 0 0-3 3v16a2.652 2.652 0 0 0 3 3h8.5q3.006 0 3-3z" transform="translate(-516.669 -143.002)"/>
        </g>
        <g id="레이어_2" data-name="레이어 2" transform="translate(-3878 1389)">
            <g id="레이어_1" data-name="레이어 1">
                <g id="그룹_241" data-name="그룹 241" transform="translate(1.188 4.613)">
                    <path id="패스_272-6" data-name="패스 272-6" class="cls-1" d="M23.238 59.243c2.547 2.455 5.474 2.465 7.975.023a26.344 26.344 0 0 1 1.925-1.856A3.084 3.084 0 0 1 37.7 61.4c-1.918 2.468-4.118 4.7-7.314 5.441a6.581 6.581 0 0 1-6.662-2.076 6.715 6.715 0 0 1-1.607-6.548c.463.423.8.718 1.121 1.026z" transform="translate(-15.538 -42.402)"/>
                    <path id="패스_273-6" data-name="패스 273-6" class="cls-1" d="M40.689 48.635a32.473 32.473 0 0 0 2.924-2.851 5.693 5.693 0 0 0-3.876-9.569 2.12 2.12 0 0 1-1.179-.275c-1.6-1.431-3.143-2.92-4.773-4.459A11.961 11.961 0 0 1 51.3 40.08c.671 5.038-1.486 8.8-5.117 12.008-5.294 4.678-12.99 4.053-17.649-1.67 4.851 1.923 8.406 1.382 12.155-1.783z" transform="translate(-20.021 -24.428)"/>
                    <path id="패스_274-6" data-name="패스 274-6" class="cls-1" d="M90.979 13.654a2.256 2.256 0 0 1 3.179 0L96.9 16.4l-5.667 5.67-4.333-4.337z" transform="translate(-59.282 -12.999)"/>
                    <path id="패스_275-6" data-name="패스 275-6" class="cls-1" d="M3.193 15.747 5.94 13l4.5 4.5 8.443 8.443-2.747 2.747a2.256 2.256 0 0 1-3.179 0L7.273 23l-4.08-4.071a2.259 2.259 0 0 1 0-3.182z" transform="translate(-2.538 -13)"/>
                </g>
            </g>
        </g>
    </g>
</svg>
